<svg width="240" height="66" viewBox="0 0 240 66" fill="none" xmlns="http://www.w3.org/2000/svg">
<path d="M0 41.5189H8.01148V25.3347H24.0344V18.5401H8.01148V8.80912H26.6337V2.0145H0V41.5189Z" fill="white"/>
<path d="M44.437 10.926C41.6597 10.926 39.1672 11.5748 36.9952 12.8722C34.8232 14.1697 33.0785 16.0135 31.8679 18.3694C30.6928 20.6912 30.0875 23.3202 30.0875 26.1883V26.5297C30.0875 31.105 31.405 34.8608 34.0399 37.6606C36.7103 40.5287 40.2354 41.9969 44.5082 41.9969C47.3211 41.9969 49.8848 41.3482 52.0568 40.0166C54.2644 38.7191 55.9735 36.8412 57.1485 34.5194C58.2879 32.2318 58.8932 29.6368 58.8932 26.7688V26.4273C58.8932 21.8179 57.5758 18.0621 54.9409 15.2281C52.2704 12.3942 48.7454 10.926 44.437 10.926ZM50.5613 30.3539C49.956 29.7734 49.137 29.3978 48.2469 29.3978C46.4665 29.3978 45.0067 30.7977 45.0067 32.5049C45.0067 33.5634 45.5764 34.5194 46.4309 35.0657C45.8256 35.2364 45.2203 35.373 44.5082 35.373C42.5142 35.373 40.9831 34.656 39.8081 33.1878C38.5619 31.6172 37.921 29.4661 37.921 26.7688C37.921 23.6958 38.5619 21.3399 39.8081 19.7693C40.9831 18.3011 42.5142 17.5841 44.437 17.5841C46.4309 17.5841 47.962 18.3011 49.1726 19.8034C50.4545 21.4082 51.0954 23.5592 51.0954 26.1883C51.0954 27.7931 50.9174 29.1588 50.5613 30.3539Z" fill="white"/>
<path d="M78.0496 10.926C75.2723 10.926 72.7799 11.5748 70.6079 12.8722C68.4359 14.1697 66.6911 16.0135 65.4805 18.3694C64.3055 20.6912 63.7002 23.3202 63.7002 26.1883V26.5297C63.7002 31.105 65.0176 34.8608 67.6525 37.6606C70.323 40.5287 73.8481 41.9969 78.1208 41.9969C80.9338 41.9969 83.4974 41.3482 85.6694 40.0166C87.8771 38.7191 89.5862 36.8412 90.7612 34.5194C91.9006 32.2318 92.5059 29.6368 92.5059 26.7688V26.4273C92.5059 21.8179 91.1885 18.0621 88.5536 15.2281C85.8831 12.3942 82.358 10.926 78.0496 10.926ZM84.0315 30.7294C83.4618 29.91 82.4649 29.3978 81.361 29.3978C79.5807 29.3978 78.1208 30.7977 78.1208 32.5049C78.1208 33.6317 78.7618 34.6218 79.7231 35.1681C79.2247 35.3047 78.6906 35.373 78.1208 35.373C76.1269 35.373 74.5958 34.656 73.4208 33.1878C72.1746 31.6172 71.5336 29.4661 71.5336 26.7688C71.5336 23.6958 72.1746 21.3399 73.4208 19.7693C74.5958 18.3011 76.1269 17.5841 78.0496 17.5841C80.0436 17.5841 81.5747 18.3011 82.7853 19.8034C84.0671 21.4082 84.7081 23.5592 84.7081 26.1883C84.7081 27.9638 84.4588 29.4661 84.0315 30.7294Z" fill="white"/>
<path d="M116.54 12.5649C114.724 11.5065 112.588 10.9602 110.131 10.9602C106.321 10.9602 103.223 12.4283 100.838 15.3306C98.559 18.1304 97.4196 21.8179 97.4196 26.2907V26.6322C97.4196 31.105 98.559 34.7926 100.838 37.6265C103.188 40.5629 106.286 42.0652 110.06 42.0652C112.73 42.0652 115.045 41.4506 116.932 40.2214L117.039 41.553H124.338V0H116.54V12.5649ZM116.54 32.3001C115.365 34.2804 113.692 35.2023 111.271 35.2023C109.419 35.2023 107.995 34.5194 106.962 33.1536C105.823 31.6513 105.253 29.5003 105.253 26.7346C105.253 23.5934 105.823 21.2375 106.962 19.7351C107.995 18.3352 109.419 17.6865 111.342 17.6865C113.692 17.6865 115.365 18.5742 116.54 20.4863V32.3001Z" fill="white"/>
<path d="M132.1 41.4506H135.732V22.0569H155.886V19.1205H135.732V2.97051H158.841V0H132.1V41.4506Z" fill="white"/>
<path d="M176.573 10.0724C174.081 10.0724 171.766 10.7553 169.63 12.121C167.493 13.4868 165.82 15.3306 164.645 17.7206C163.434 20.0766 162.864 22.7398 162.864 25.7103V26.9395C162.864 29.8076 163.47 32.4025 164.716 34.6901C165.927 36.9777 167.671 38.7874 169.879 40.0848C172.087 41.3823 174.543 42.031 177.285 42.031C182.234 42.031 186.044 40.2214 188.644 36.6022L186.436 34.9974C185.261 36.4656 183.944 37.5241 182.484 38.1728C181.024 38.8215 179.35 39.163 177.463 39.163C174.294 39.163 171.659 38.0021 169.594 35.6803C167.493 33.3585 166.461 30.4563 166.461 26.9736V26.3249H189.285V24.4128C189.285 20.0083 188.145 16.5256 185.866 13.9648C183.588 11.3699 180.49 10.0724 176.573 10.0724ZM185.76 23.3885H166.496C166.888 20.2131 167.992 17.6865 169.843 15.8086C171.659 13.9307 173.938 13.0088 176.609 13.0088C179.279 13.0088 181.487 13.9307 183.125 15.8086C184.763 17.6865 185.653 20.0766 185.76 23.0471V23.3885Z" fill="white"/>
<path d="M214.387 26.4956C212.82 25.7103 210.506 24.9591 207.373 24.2421C204.275 23.5251 202.103 22.7739 200.928 21.9203C199.753 21.0667 199.148 19.8717 199.148 18.3352C199.148 16.7305 199.86 15.433 201.284 14.4428C202.708 13.4527 204.56 12.9405 206.91 12.9405C209.295 12.9405 211.289 13.521 212.856 14.716C214.423 15.911 215.206 17.4134 215.206 19.223H218.767C218.767 16.4915 217.699 14.2721 215.527 12.5649C213.355 10.8577 210.47 10.0042 206.91 10.0042C203.598 10.0042 200.892 10.7895 198.792 12.3942C196.691 13.9648 195.623 15.9793 195.623 18.4035C195.623 19.94 196.014 21.2375 196.762 22.3301C197.51 23.4227 198.685 24.3104 200.251 25.0616C201.818 25.8127 204.026 26.4615 206.874 27.0419C209.723 27.6224 211.859 28.4077 213.283 29.432C214.708 30.4563 215.42 31.8221 215.42 33.4951C215.42 35.0999 214.672 36.3973 213.141 37.4558C211.61 38.5142 209.616 39.0264 207.159 39.0264C204.524 39.0264 202.388 38.4801 200.75 37.3534C199.148 36.2608 198.257 34.6901 198.115 32.7098H194.554C194.554 35.373 195.729 37.5582 198.044 39.2995C200.358 41.0409 203.385 41.8945 207.123 41.8945C210.648 41.8945 213.497 41.1092 215.669 39.5727C217.841 38.0021 218.945 35.9535 218.945 33.3585C218.945 31.7538 218.553 30.4222 217.805 29.2954C217.093 28.2711 215.954 27.2809 214.387 26.4956Z" fill="white"/>
<path d="M239.525 38.7532C238.208 38.9581 237.247 39.0264 236.641 39.0264C235.146 39.0264 234.078 38.6167 233.437 37.7631C232.796 36.9436 232.475 35.6461 232.475 33.939V13.4185H239.134V10.6187H232.475V2.73151H228.915V10.6187H223.004V13.4185H228.915V33.9731C228.915 36.6022 229.484 38.6167 230.588 39.9483C231.692 41.314 233.472 41.9969 235.894 41.9969C237.496 41.9969 238.778 41.8262 239.703 41.5189L239.525 38.7532Z" fill="white"/>
<path d="M29.4467 48.8598C34.0043 53.0936 39.0248 56.508 44.3302 59.0347C49.6356 61.5272 55.297 62.9612 60.9941 62.9612C63.8426 63.0295 66.6555 62.6198 69.4328 61.9369C70.8215 61.6637 72.2102 61.1516 73.5632 60.7077L75.5928 59.8883C76.2693 59.6493 76.9458 59.342 77.5867 59.0005C82.8921 56.4397 87.8058 52.8888 92.5415 48.8939C88.5892 53.8448 83.8535 58.0786 78.5125 61.1516C77.1951 62.0052 75.7708 62.5856 74.3821 63.2344C72.9579 63.7807 71.5336 64.3952 70.0382 64.7367C67.0828 65.5903 64.0562 66 60.9941 66C54.8697 65.9659 48.8166 64.2587 43.4756 61.1857C38.0634 58.1469 33.1853 54.0155 29.4467 48.8598Z" fill="white"/>
</svg>
